<?xml version="1.0" encoding="UTF-8" standalone="no"?>
<!DOCTYPE svg PUBLIC "-//W3C//DTD SVG 1.1//EN" "http://www.w3.org/Graphics/SVG/1.1/DTD/svg11.dtd">
<svg width="100%" height="100%" viewBox="0 0 3569 3497" version="1.1" xmlns="http://www.w3.org/2000/svg" xmlns:xlink="http://www.w3.org/1999/xlink" xml:space="preserve" xmlns:serif="http://www.serif.com/" style="fill-rule:evenodd;clip-rule:evenodd;stroke-linejoin:round;stroke-miterlimit:2;">
    <g transform="matrix(1,0,0,1,-37102,0)">
        <g id="Artboard2" transform="matrix(1,0,0,1,26141.2,-4140.17)">
            <rect x="10961.2" y="4140.17" width="3567.69" height="3496.82" style="fill:none;"/>
            <g transform="matrix(1.33492,0,0,1.33492,10859.3,3952.47)">
                <g>
                    <g transform="matrix(0.749108,0,0,0.749108,-8798.01,-3052.43)">
                        <path d="M15117.3,7588.57L12143.4,7588.57L12143.4,7587.67C12092.4,7581.49 12052.8,7537.99 12052.8,7485.3L12052.8,7485.3L12052.8,4523.84L12053.5,4523.84C12059.2,4476.89 12096.5,4439.61 12143.4,4433.92L12143.4,4433.17L15117.3,4433.17L15117.3,4433.92C15164.3,4439.61 15201.6,4476.89 15207.3,4523.84L15208,4523.84L15208,7485.3L15208,7485.3L15208,7485.37C15208,7538.09 15168.4,7581.63 15117.3,7587.82L15117.3,7588.57ZM13942.2,5661.11C13996.3,5710.37 14068,5740.39 14146.6,5740.39C14303.8,5740.39 14433.3,5620.39 14449.9,5466.42C14449.2,5455.31 14448.9,5444.11 14448.9,5432.82L14655.4,5432.82C14655.4,5444.11 14655,5455.31 14654.3,5466.42C14671,5620.39 14800.5,5740.39 14957.6,5740.39C14981.4,5740.39 15004.5,5737.65 15026.7,5732.47L15026.7,4614.51L12234.1,4614.51L12234.1,5729C12260.3,5736.42 12288,5740.39 12316.6,5740.39C12477.1,5740.39 12608.8,5615.23 12620.8,5456.55C12620.4,5448.68 12620.3,5440.77 12620.3,5432.82L12825.4,5432.82C12825.4,5440.77 12825.2,5448.68 12824.8,5456.55C12836.9,5615.23 12968.6,5740.39 13129.1,5740.39C13207.4,5740.39 13278.9,5710.57 13332.9,5661.59L13332.9,5902.8C13270.5,5930.38 13201.5,5945.69 13129.1,5945.69C12963.2,5945.69 12815.7,5865.49 12722.8,5741.49C12629.9,5865.49 12482.5,5945.69 12316.6,5945.69C12288.5,5945.69 12260.9,5943.39 12234.1,5938.97L12234.1,7382.03L15026.7,7382.03L15026.7,5941C15004.1,5944.09 14981,5945.69 14957.6,5945.69C14792.2,5945.69 14645.1,5865.9 14552.1,5742.46C14459.2,5865.9 14312.1,5945.69 14146.6,5945.69C14073.9,5945.69 14004.8,5930.29 13942.2,5902.56L13942.2,5661.11ZM13532.9,5432.82L13637.8,5432.82C13637.8,5550.07 13598.7,5658.18 13532.9,5744.61L13532.9,5432.82ZM13742.2,5432.82L13742.2,5743.9C13676.7,5657.59 13637.8,5549.75 13637.8,5432.82L13742.2,5432.82Z" style="fill:url(#_Radial1);"/>
                    </g>
                    <g transform="matrix(0.835848,0,0,0.835848,-13087.4,-3596.52)">
                        <path d="M16898.6,5221.82C16898.6,4981.61 17102.7,4786.58 17354.2,4786.58C17605.6,4786.58 17809.7,4981.61 17809.7,5221.82L17809.7,6172.88C17922.6,6289 17992.3,6447.99 17992.3,6623.26C17992.3,6978.49 17706.1,7266.9 17353.7,7266.9C17001.3,7266.9 16715.2,6978.49 16715.2,6623.26C16715.2,6447.57 16785.2,6288.23 16898.6,6172.04L16898.6,5221.82L16898.6,5221.82ZM17627.2,6255.51C17738,6339.4 17809.7,6472.95 17809.7,6623.26C17809.7,6876.94 17605.4,7082.9 17353.7,7082.9C17102.1,7082.9 16897.8,6876.94 16897.8,6623.26C16897.8,6472.58 16969.8,6338.74 17081.1,6254.89L17081.1,5221.82C17081.1,5077.85 17203.5,4960.97 17354.2,4960.97C17504.8,4960.97 17627.2,5077.85 17627.2,5221.82L17627.2,6255.51Z" style="fill:url(#_Radial2);"/>
                    </g>
                    <g transform="matrix(0.835848,0,0,0.835848,-13087.4,-3596.52)">
                        <path d="M17260.4,6364.12L17260.4,5221.82C17260.4,5172.38 17302.4,5132.23 17354.2,5132.23C17405.9,5132.23 17447.9,5172.38 17447.9,5221.82L17447.9,6364.42C17552.5,6403.14 17627.2,6504.48 17627.2,6623.26C17627.2,6775.39 17504.7,6898.91 17353.7,6898.91C17202.8,6898.91 17080.3,6775.39 17080.3,6623.26C17080.3,6504.17 17155.4,6402.62 17260.4,6364.12ZM17353.7,6531.99C17403.9,6531.99 17444.7,6572.89 17444.7,6623.26C17444.7,6673.63 17403.9,6714.52 17353.7,6714.52C17303.6,6714.52 17262.8,6673.63 17262.8,6623.26C17262.8,6572.89 17303.6,6531.99 17353.7,6531.99Z" style="fill:url(#_Radial3);"/>
                    </g>
                </g>
            </g>
        </g>
    </g>
    <defs>
        <radialGradient id="_Radial1" cx="0" cy="0" r="1" gradientUnits="userSpaceOnUse" gradientTransform="matrix(3694.24,-3683.57,3683.57,3694.24,11513.8,8116.74)"><stop offset="0" style="stop-color:rgb(50,138,162);stop-opacity:1"/><stop offset="0.39" style="stop-color:rgb(68,190,199);stop-opacity:1"/><stop offset="0.83" style="stop-color:rgb(73,206,210);stop-opacity:1"/><stop offset="1" style="stop-color:rgb(160,223,221);stop-opacity:1"/></radialGradient>
        <radialGradient id="_Radial2" cx="0" cy="0" r="1" gradientUnits="userSpaceOnUse" gradientTransform="matrix(3310.87,-3301.31,3301.31,3310.87,15450.8,7925.37)"><stop offset="0" style="stop-color:rgb(50,138,162);stop-opacity:1"/><stop offset="0.39" style="stop-color:rgb(68,190,199);stop-opacity:1"/><stop offset="0.83" style="stop-color:rgb(73,206,210);stop-opacity:1"/><stop offset="1" style="stop-color:rgb(160,223,221);stop-opacity:1"/></radialGradient>
        <radialGradient id="_Radial3" cx="0" cy="0" r="1" gradientUnits="userSpaceOnUse" gradientTransform="matrix(3310.87,-3301.31,3301.31,3310.87,15450.8,7925.37)"><stop offset="0" style="stop-color:rgb(50,138,162);stop-opacity:1"/><stop offset="0.39" style="stop-color:rgb(68,190,199);stop-opacity:1"/><stop offset="0.83" style="stop-color:rgb(73,206,210);stop-opacity:1"/><stop offset="1" style="stop-color:rgb(160,223,221);stop-opacity:1"/></radialGradient>
    </defs>
</svg>
