<?xml version="1.0" encoding="UTF-8" standalone="no"?><!DOCTYPE svg PUBLIC "-//W3C//DTD SVG 1.1//EN" "http://www.w3.org/Graphics/SVG/1.1/DTD/svg11.dtd"><svg width="100%" height="100%" viewBox="0 0 857 840" version="1.1" xmlns="http://www.w3.org/2000/svg" xmlns:xlink="http://www.w3.org/1999/xlink" xml:space="preserve" xmlns:serif="http://www.serif.com/" style="fill-rule:evenodd;clip-rule:evenodd;stroke-linejoin:round;stroke-miterlimit:2;"><rect id="Fish-Medium" serif:id="Fish Medium" x="0.095" y="0.097" width="856.246" height="839.238" style="fill:none;"/><circle cx="428.218" cy="419.715" r="419.619" style="fill:#49ced2;"/><path d="M155.634,283.397c5.342,0.071 10.597,1.846 14.931,5.114l82.559,62.442c27.234,-27.962 60.143,-52.403 95.734,-70.132c39.22,-19.536 82.648,-31.081 127.057,-29.483c41.353,1.489 81.921,14.156 118.553,33.672c23.708,12.631 46.009,28.146 66.192,45.645c17.846,15.473 34.467,32.549 48.06,51.701c5.964,8.405 11.572,17.247 14.861,26.93c1.507,4.436 2.381,9.162 1.749,13.763c-1.098,7.997 -4.941,15.421 -9.073,22.45c-11.511,19.579 -27.058,36.685 -43.468,52.272c-24.048,22.843 -51.092,42.399 -80.348,57.721c-39.177,20.518 -82.917,33.161 -127.063,32.741c-44.627,-0.425 -88.927,-14.162 -128.255,-35.764c-30.993,-17.024 -59.361,-38.686 -84.008,-63.981c-27.551,20.837 -55.072,41.713 -82.653,62.512c-5.745,4.281 -13.33,5.98 -20.424,4.486c-9.289,-1.956 -17.546,-9.386 -18.951,-19.068c-0.377,-2.599 -0.252,-5.261 0.308,-7.833l23.992,-108.87l-23.982,-108.86c-1.563,-7.174 0.687,-15.011 6.212,-20.365c4.7,-4.553 11.186,-7.095 17.798,-7.095c0.073,0.001 0.146,0.001 0.219,0.002Zm100.724,187.979c0.991,0.432 1.279,0.486 2.144,1.152c0.541,0.417 0.765,0.673 1.158,1.094c0.169,0.18 0.338,0.36 0.508,0.54c29.24,31.068 65.293,57.541 104.926,75.575c32.828,14.937 68.763,23.891 104.822,23.493c28.676,-0.316 57.205,-6.446 83.967,-16.706c34.693,-13.3 66.672,-33.203 94.994,-57.398c16.759,-14.318 32.427,-30.113 45.501,-47.819c5.556,-7.525 10.861,-15.388 14.285,-24.049c1.167,-2.949 2.286,-6.008 1.74,-9.267c-0.529,-3.164 -1.794,-6.185 -3.174,-9.124c-4.88,-10.387 -11.751,-19.743 -19.029,-28.705c-12.473,-15.357 -26.654,-29.258 -41.805,-41.957c-23.778,-19.93 -50.031,-36.816 -78.442,-49.469c-31.17,-13.882 -64.888,-22.326 -99.013,-22.544c-27.738,-0.176 -55.493,5.127 -81.784,14.535c-39.333,14.075 -75.569,36.932 -106.694,64.793c-7.13,6.382 -14.015,13.082 -20.538,20.029l-0.253,0.27l-0.254,0.272l-0.904,0.821c-0.907,0.588 -1.111,0.799 -2.144,1.153c-1.545,0.53 -3.253,0.537 -4.803,0.021c-1.035,-0.345 -1.242,-0.554 -2.154,-1.134c-29.325,-22.179 -58.516,-44.539 -87.977,-66.538c-3.831,-2.821 -9.576,-2.71 -13.261,0.736c-1.693,1.583 -2.673,3.943 -2.116,6.496l24.333,110.456c0.052,0.357 0.13,0.712 0.156,1.072c0.07,0.965 -0.018,1.206 -0.156,2.156c-8.121,36.851 -16.52,73.643 -24.363,110.555c-0.256,1.255 -0.201,2.568 0.277,3.764c0.918,2.301 3.093,3.929 5.365,4.745c3.236,1.161 7.023,0.694 9.846,-1.434l87.886,-66.471c0.688,-0.438 1.383,-0.877 2.154,-1.134c1.158,-0.386 2.394,-0.385 3.619,-0.28c0.395,0.1 0.789,0.201 1.183,0.301Zm299.304,-83.314c8.345,0.037 16.553,3.477 22.414,9.399c7.346,7.423 10.639,18.621 8.437,28.91c-2.503,11.69 -12.154,21.607 -24.095,24.252c-10.051,2.226 -21.113,-0.776 -28.691,-7.993c-8.251,-7.857 -11.827,-20.294 -8.617,-31.581c3.534,-12.427 15.107,-22.207 28.727,-22.941c0.608,-0.033 1.215,-0.047 1.825,-0.046Zm-0.156,14.999c-6.297,0.029 -12.469,3.917 -15.131,9.802c-2.904,6.421 -1.245,14.614 4.257,19.416c4.606,4.02 11.518,5.212 17.268,2.843c7.339,-3.025 12.154,-11.575 9.642,-20.12c-1.971,-6.706 -8.475,-11.84 -15.764,-11.939c-0.091,-0.001 -0.181,-0.002 -0.272,-0.002Z" style="fill:#fbfaf9;"/></svg>