<?xml version="1.0" encoding="UTF-8" standalone="no"?><!DOCTYPE svg PUBLIC "-//W3C//DTD SVG 1.1//EN" "http://www.w3.org/Graphics/SVG/1.1/DTD/svg11.dtd"><svg width="100%" height="100%" viewBox="0 0 857 840" version="1.1" xmlns="http://www.w3.org/2000/svg" xmlns:xlink="http://www.w3.org/1999/xlink" xml:space="preserve" xmlns:serif="http://www.serif.com/" style="fill-rule:evenodd;clip-rule:evenodd;stroke-linejoin:round;stroke-miterlimit:2;"><rect id="Fish-Light" serif:id="Fish Light" x="0.199" y="0.151" width="856.246" height="839.238" style="fill:none;"/><circle cx="428.322" cy="419.77" r="419.619" style="fill:#a0dfdd;"/><path d="M155.738,283.451c5.35,0.08 10.63,1.882 14.927,5.112l82.563,62.445c22.037,-22.645 46.544,-41.872 73.301,-57.855c37.605,-22.462 79.919,-37.889 123.211,-41.218c32.975,-2.536 66.353,2.27 97.734,12.757c41.466,13.858 79.582,36.895 112.783,65.579c19.116,16.516 36.836,34.749 50.839,55.415c4.941,7.292 9.523,14.894 12.43,23.195c1.571,4.485 2.537,9.261 1.946,13.931c-0.996,7.88 -4.734,15.22 -8.8,22.209c-9.747,16.754 -22.572,31.601 -36.161,45.34c-25.038,25.316 -53.685,46.878 -85.602,63.935c-32.743,17.498 -68.518,29.513 -105.275,32.965c-35.545,3.338 -71.537,-1.788 -105.726,-13.775c-41.294,-14.478 -79.242,-38.089 -112.062,-67.185c-6.424,-5.695 -12.647,-11.618 -18.627,-17.758l-82.564,62.445c-6.926,5.206 -16.429,6.537 -24.651,3.315c-7.502,-2.939 -13.63,-9.676 -14.813,-17.83c-0.378,-2.603 -0.249,-5.271 0.308,-7.832l23.992,-108.871c-8.002,-36.323 -16.079,-72.629 -24.006,-108.969c-1.522,-7.164 0.786,-15.023 6.314,-20.331c4.665,-4.479 11.141,-6.982 17.602,-7.02c0.113,0 0.225,0.001 0.337,0.001Zm100.724,187.98c0.748,0.326 1.5,0.656 2.144,1.152c0.723,0.557 1.298,1.244 1.919,1.904c24.612,26.067 53.783,48.456 84.755,65.345c20.648,11.259 42.441,20.202 65.006,26.012c19.226,4.951 39.268,7.608 59.149,7.447c31.674,-0.257 63.082,-7.634 92.154,-19.753c30.95,-12.902 59.569,-30.979 85.16,-52.468c17.585,-14.765 33.956,-31.104 47.597,-49.526c5.585,-7.541 10.909,-15.428 14.375,-24.114c1.213,-3.04 2.349,-6.219 1.761,-9.533c-0.554,-3.12 -1.793,-6.088 -3.15,-8.975c-3.494,-7.439 -8.088,-14.311 -12.986,-20.926c-13.591,-18.354 -29.842,-34.589 -47.347,-49.316c-19.972,-16.803 -41.742,-31.439 -64.987,-43.241c-31.139,-15.81 -65.065,-26.406 -99.945,-28.719c-19.976,-1.324 -40.237,0.213 -59.701,4.189c-46.016,9.401 -88.917,31.906 -125.851,61.221c-13.112,10.406 -25.504,21.722 -36.995,34.017l-0.904,0.821c-0.907,0.587 -1.111,0.798 -2.143,1.152c-1.545,0.53 -3.254,0.537 -4.803,0.021c-1.036,-0.345 -1.242,-0.554 -2.154,-1.134c-29.31,-22.168 -58.555,-44.424 -87.932,-66.505c-3.687,-2.747 -9.317,-2.684 -12.975,0.409c-1.917,1.62 -3.017,4.179 -2.448,6.788l24.334,110.458c0.138,0.949 0.226,1.191 0.156,2.155c-0.026,0.36 -0.104,0.715 -0.156,1.072c-8.122,36.855 -16.522,73.65 -24.365,110.566c-1.017,4.919 4.345,9.663 10.317,9.1c1.829,-0.173 3.597,-0.871 5.081,-1.967l0.096,-0.072l87.882,-66.467c0.689,-0.438 1.383,-0.877 2.154,-1.134c1.158,-0.386 2.394,-0.385 3.619,-0.28c0.395,0.1 0.789,0.2 1.183,0.301Zm299.405,-83.314c11.984,0.072 23.623,7.314 28.732,18.795c3.911,8.791 3.629,19.241 -1.107,27.953c-4.497,8.272 -12.787,14.369 -22.225,16.064c-13.934,2.503 -29.152,-5.128 -34.91,-19.187c-4.979,-12.157 -1.8,-27.185 8.956,-36.216c5.599,-4.701 12.859,-7.365 20.151,-7.409c0.134,-0.001 0.268,-0.001 0.403,0Zm-0.257,14.999c-5.772,0.035 -11.425,3.091 -14.472,8.501c-3.834,6.808 -2.408,16.219 4.489,21.441c4.544,3.44 10.89,4.362 16.328,2.139c6.325,-2.587 10.853,-9.112 10.324,-16.607c-0.572,-8.093 -7.36,-15.042 -15.811,-15.455c-0.286,-0.014 -0.572,-0.019 -0.858,-0.019Z" style="fill:#fbfaf9;"/></svg>