<?xml version="1.0" encoding="UTF-8" standalone="no"?><!DOCTYPE svg PUBLIC "-//W3C//DTD SVG 1.1//EN" "http://www.w3.org/Graphics/SVG/1.1/DTD/svg11.dtd"><svg width="100%" height="100%" viewBox="0 0 857 840" version="1.1" xmlns="http://www.w3.org/2000/svg" xmlns:xlink="http://www.w3.org/1999/xlink" xml:space="preserve" xmlns:serif="http://www.serif.com/" style="fill-rule:evenodd;clip-rule:evenodd;stroke-linejoin:round;stroke-miterlimit:2;"><rect id="Fish-Dark" serif:id="Fish Dark" x="0.095" y="0.051" width="856.246" height="839.238" style="fill:none;"/><circle cx="428.218" cy="419.67" r="419.619" style="fill:#328aa2;"/><path d="M155.634,283.351c5.359,0.068 10.643,1.878 14.933,5.116l82.557,62.44c26.598,-27.302 57.56,-50.455 91.485,-67.976c37.322,-19.274 78.597,-31.183 119.676,-31.765c28.465,-0.404 56.881,4.585 83.836,13.678c38.071,12.843 73.383,33.551 104.483,58.983c18.618,15.224 35.976,32.219 50.651,51.13c7.269,9.368 14.071,19.169 18.709,30.074c2.434,5.724 4.199,11.905 3.366,17.972c-0.796,5.796 -3.144,11.288 -5.827,16.55c-8.389,16.448 -20.499,31.028 -33.015,44.393c-21.179,22.615 -45.485,42.344 -71.789,58.743c-42.37,26.415 -90.628,43.933 -140.24,45.406c-45.441,1.349 -90.875,-11.327 -131.186,-32.377c-31.66,-16.532 -60.42,-37.775 -85.68,-62.762c-1.507,-1.49 -2.999,-2.996 -4.478,-4.514c-27.552,20.838 -55.062,41.729 -82.654,62.513c-3.759,2.801 -8.281,4.547 -12.926,4.947c-10.689,0.921 -22.065,-5.303 -25.593,-15.916c-1.219,-3.67 -1.371,-7.664 -0.547,-11.446l23.992,-108.87l-23.982,-108.86c-1.658,-7.612 0.957,-15.707 6.93,-21.033c4.637,-4.134 10.866,-6.427 17.08,-6.427c0.073,0 0.146,0 0.219,0.001Zm100.724,187.979c0.991,0.432 1.279,0.487 2.144,1.152c0.541,0.417 0.765,0.673 1.158,1.094c0.169,0.18 0.338,0.361 0.508,0.541c30.365,32.257 68.617,59.963 110.233,77.928c24.695,10.66 50.954,17.921 77.866,20.296c30.189,2.665 60.76,-1.228 89.704,-10.315c39.801,-12.494 76.41,-34.013 108.424,-60.846c17.759,-14.885 34.315,-31.408 47.983,-49.919c5.575,-7.55 10.887,-15.453 14.285,-24.048c1.166,-2.95 2.286,-6.01 1.74,-9.268c-0.531,-3.172 -1.796,-6.19 -3.174,-9.124c-4.883,-10.392 -11.74,-19.729 -19.029,-28.705c-12.467,-15.35 -26.654,-29.259 -41.804,-41.956c-20.285,-16.999 -42.473,-31.815 -66.124,-43.646c-34.806,-17.413 -73.098,-28.298 -112.311,-28.371c-29.571,-0.056 -59.064,6.109 -86.755,16.747c-38.356,14.734 -73.36,37.511 -103.49,65.069c-6.336,5.795 -12.47,11.847 -18.299,18.086l-0.904,0.822c-0.907,0.587 -1.111,0.798 -2.144,1.152c-1.545,0.53 -3.253,0.538 -4.803,0.022c-1.035,-0.345 -1.242,-0.555 -2.154,-1.134c-29.325,-22.18 -58.493,-44.57 -87.977,-66.539c-4.03,-2.973 -10.251,-2.663 -13.789,1.274c-1.41,1.569 -2.066,3.766 -1.588,5.958l24.333,110.456c0.052,0.358 0.13,0.712 0.156,1.072c0.07,0.965 -0.018,1.206 -0.156,2.156c-8.121,36.852 -16.52,73.644 -24.363,110.556c-0.729,3.572 1.809,7.184 5.776,8.555c3.217,1.113 6.933,0.612 9.713,-1.482l87.885,-66.47c0.688,-0.437 1.383,-0.877 2.154,-1.134c1.158,-0.385 2.394,-0.385 3.619,-0.279c0.395,0.1 0.789,0.2 1.183,0.3Zm299.304,-83.314c12.097,0.054 23.818,7.537 28.832,18.794c3.983,8.942 3.493,19.737 -1.29,28.288c-5.45,9.744 -16.33,16.226 -27.643,16.226c-10.987,0 -21.764,-6.072 -27.406,-15.81c-5.873,-10.137 -5.558,-23.541 1.112,-33.472c5.724,-8.524 15.742,-13.979 26.194,-14.026c0.067,0 0.134,0 0.201,0Zm-0.156,15c-4.373,0.02 -8.687,1.811 -11.793,4.949c-4.901,4.954 -6.214,13.164 -2.894,19.46c3.239,6.14 10.517,9.878 17.594,8.657c8.747,-1.509 15.787,-10.569 13.304,-20.484c-1.754,-7.004 -8.453,-12.474 -15.936,-12.581c-0.092,-0.001 -0.184,-0.001 -0.275,-0.001Z" style="fill:#fbfaf9;"/></svg>