<?xml version="1.0" encoding="UTF-8" standalone="no"?><!DOCTYPE svg PUBLIC "-//W3C//DTD SVG 1.1//EN" "http://www.w3.org/Graphics/SVG/1.1/DTD/svg11.dtd"><svg width="100%" height="100%" viewBox="0 0 857 840" version="1.1" xmlns="http://www.w3.org/2000/svg" xmlns:xlink="http://www.w3.org/1999/xlink" xml:space="preserve" xmlns:serif="http://www.serif.com/" style="fill-rule:evenodd;clip-rule:evenodd;stroke-linejoin:round;stroke-miterlimit:2;"><rect id="Smartphone-Medium" serif:id="Smartphone Medium" x="0" y="0.097" width="856.246" height="839.238" style="fill:none;"/><circle cx="428.123" cy="419.715" r="419.619" style="fill:#49ced2;"/><path d="M543.323,163.715c24.726,0.001 44.8,20.075 44.8,44.8l0,422.4c0,24.726 -20.074,44.8 -44.8,44.8l-230.4,0c-24.726,0 -44.8,-20.074 -44.8,-44.8l0,-422.4c0,-24.725 20.074,-44.799 44.8,-44.8l230.4,0Zm-115.2,433.053c17.661,0 32,14.339 32,32c0,17.662 -14.339,32 -32,32c-17.661,0 -32,-14.338 -32,-32c0,-17.661 14.339,-32 32,-32Zm104.438,-418.105l-208.876,0c-22.416,0 -40.615,18.199 -40.615,40.614l0,321.929c0,22.416 18.199,40.615 40.615,40.615l208.876,0c22.416,0 40.615,-18.199 40.615,-40.615l0,-321.929c0,-22.415 -18.199,-40.614 -40.615,-40.614Z" style="fill:#fbfaf9;"/></svg>