<?xml version="1.0" encoding="UTF-8" standalone="no"?><!DOCTYPE svg PUBLIC "-//W3C//DTD SVG 1.1//EN" "http://www.w3.org/Graphics/SVG/1.1/DTD/svg11.dtd"><svg width="100%" height="100%" viewBox="0 0 857 840" version="1.1" xmlns="http://www.w3.org/2000/svg" xmlns:xlink="http://www.w3.org/1999/xlink" xml:space="preserve" xmlns:serif="http://www.serif.com/" style="fill-rule:evenodd;clip-rule:evenodd;stroke-linejoin:round;stroke-miterlimit:2;"><rect id="Water-medium" serif:id="Water medium" x="0.123" y="0.097" width="856.246" height="839.238" style="fill:none;"/><circle cx="428.245" cy="419.715" r="419.619" style="fill:#49ced2;"/><path d="M428.383,156.216c10.147,0.065 20.217,4.107 27.303,11.518c4.268,4.464 7.324,10.055 8.981,15.976c0.713,2.573 1.536,5.102 2.335,7.64c9.482,30.111 22.062,59.073 37.528,86.701c14.324,25.589 31.078,49.696 47.917,73.775c17.061,24.408 34.163,48.991 45.467,76.402c12.626,30.617 16.688,64.344 11.765,97.368c-6.106,40.954 -26.352,79.71 -56.569,108.087c-28.226,26.507 -64.729,43.744 -103.491,48.289c-36.262,4.252 -73.715,-2.563 -106.215,-19.709c-37.765,-19.923 -68.113,-53.402 -84.476,-92.911c-14.694,-35.48 -18.334,-75.681 -9.388,-113.17c4.415,-18.504 11.969,-36.134 21.188,-52.767c11.396,-20.564 25.098,-39.75 38.544,-59.034c17.266,-24.771 33.956,-49.657 48.046,-76.218c13.559,-25.562 24.654,-52.305 33.153,-79.97c0.988,-3.216 1.853,-6.467 3.2,-9.522c4.451,-10.093 13.434,-18.057 24.116,-21.036c2.338,-0.652 4.738,-1.08 7.157,-1.283c1.143,-0.096 2.292,-0.139 3.439,-0.136Zm-0.287,15c-5.009,0.036 -10.005,1.644 -13.936,4.697c-3.975,3.088 -6.641,7.648 -8.083,12.494c-10.045,33.748 -24.124,66.912 -41.69,98.089c-14.56,25.841 -31.602,50.378 -48.687,74.889c-16.931,24.303 -33.756,48.373 -44.558,76.009c-13.43,34.361 -14.855,73.295 -4.498,108.758c11.013,37.712 35.447,71.431 68.238,93.55c27.586,18.609 60.684,28.67 94.182,28.512c34.673,-0.164 69.065,-11.401 97.133,-31.718c29.618,-21.44 51.966,-52.634 62.819,-87.582c9.862,-31.762 10.445,-66.513 0.99,-98.206c-7.434,-24.922 -21.01,-47.851 -35.494,-69.439c-17.412,-25.951 -36.091,-50.997 -52.387,-77.657c-20.399,-33.371 -37.105,-69.017 -48.994,-106.378c-0.99,-3.111 -1.957,-6.224 -2.875,-9.36c-1.158,-3.954 -3.163,-7.681 -6.165,-10.523c-4.187,-3.963 -9.961,-6.098 -15.774,-6.135c-0.074,-0.001 -0.147,-0.001 -0.221,0Zm-95.7,305c7.528,0.068 14.888,3.934 19.175,10.123c2.791,4.029 4.149,8.932 4.176,13.846c0.119,16.339 5.961,32.603 16.297,45.276c13.317,16.327 34.052,26.44 55.15,26.747c0.572,0.008 1.352,0.009 1.352,0.009c10.077,0.161 19.577,7.212 22.347,17.21c2.514,9.071 -0.971,19.57 -8.808,25.285c-4.085,2.979 -9.099,4.513 -14.223,4.503c-24.248,-0.094 -48.513,-7.771 -68.461,-21.873c-20.48,-14.48 -36.241,-35.511 -44.304,-59.163c-4.212,-12.357 -6.343,-25.416 -6.352,-38.469c0,0 0.005,-0.688 0.031,-1.195c0.467,-9.273 6.838,-17.924 15.795,-21.017c2.511,-0.867 5.189,-1.291 7.825,-1.282Zm-0.207,15c-4.479,0.041 -8.451,4.026 -8.443,8.668c0,0.114 0,0.227 0.001,0.34c0.112,24.69 9.323,49.198 25.617,67.952c13.752,15.827 32.295,27.384 52.488,32.664c8.609,2.251 17.334,3.406 26.446,3.375c4.545,-0.046 8.68,-4.092 8.436,-8.945c-0.213,-4.236 -3.905,-8.013 -8.432,-8.054c-19.791,-0.067 -39.124,-6.806 -54.464,-19.016c-19.515,-15.532 -31.894,-39.556 -33.005,-64.552c-0.107,-2.392 0.177,-4.846 -0.657,-7.006c-1.212,-3.136 -4.404,-5.371 -7.817,-5.426c-0.057,0 -0.114,0 -0.17,0Z" style="fill:#fbfaf9;"/></svg>