<?xml version="1.0" encoding="UTF-8" standalone="no"?><!DOCTYPE svg PUBLIC "-//W3C//DTD SVG 1.1//EN" "http://www.w3.org/Graphics/SVG/1.1/DTD/svg11.dtd"><svg width="100%" height="100%" viewBox="0 0 857 840" version="1.1" xmlns="http://www.w3.org/2000/svg" xmlns:xlink="http://www.w3.org/1999/xlink" xml:space="preserve" xmlns:serif="http://www.serif.com/" style="fill-rule:evenodd;clip-rule:evenodd;stroke-linejoin:round;stroke-miterlimit:2;"><rect id="Water-Dark" serif:id="Water Dark" x="0.123" y="0.051" width="856.246" height="839.238" style="fill:none;"/><circle cx="428.245" cy="419.67" r="419.619" style="fill:#328aa2;"/><path d="M428.382,156.17c10.221,0.065 20.259,4.191 27.237,11.449c4.278,4.45 7.343,10.027 9.019,15.939c0,0 0.53,1.794 0.974,3.254c11.137,36.629 26.947,71.604 46.504,104.291c12.456,20.816 26.398,40.754 40.331,60.677c19.785,28.307 39.613,56.907 50.412,89.742c13.926,42.338 11.225,90.102 -6.731,131.155c-16.684,38.144 -46.581,70.444 -83.533,89.799c-39.022,20.439 -85.493,26.046 -128.594,15.273c-36.05,-9.011 -69.129,-29.44 -93.657,-57.662c-29.636,-34.1 -46.148,-79.133 -45.584,-124.87c0.286,-23.188 5.18,-46.156 14.183,-67.712c9.802,-23.467 23.902,-44.997 38.328,-65.917c16.613,-24.091 33.762,-47.93 48.687,-73.21c18.709,-31.688 33.903,-65.573 44.65,-100.68c0.939,-3.066 1.778,-6.159 3.063,-9.072c3.491,-7.916 9.714,-14.616 17.414,-18.46c5.24,-2.615 11.135,-3.954 16.935,-3.996c0.12,0 0.241,0 0.362,0Zm-0.287,15c-8.665,0.062 -16.988,5.093 -20.699,13.508c-1.116,2.53 -1.772,5.224 -2.587,7.874c-9.998,32.547 -23.654,64.133 -40.422,93.898c-14.628,25.966 -31.665,50.47 -48.687,74.889c-18.797,26.982 -37.61,54.078 -47.804,85.019c-14.015,42.541 -9.667,90.554 11.104,130.553c15.826,30.477 41.106,56.11 71.63,72.159c29.237,15.373 63.135,21.737 96.184,18.079c30.639,-3.39 60.255,-15.517 84.66,-34.678c27.202,-21.358 47.567,-51.105 57.696,-84.102c9.714,-31.647 10.29,-66.013 0.836,-97.707c-7.431,-24.918 -21.011,-47.85 -35.494,-69.438c-17.206,-25.647 -35.646,-50.386 -51.81,-76.715c-20.686,-33.696 -37.608,-69.725 -49.571,-107.321c-0.99,-3.111 -1.957,-6.224 -2.875,-9.359c-1.127,-3.849 -3.062,-7.525 -6.004,-10.37c-4.252,-4.11 -10.268,-6.305 -16.157,-6.289Zm-95.699,305c9.566,0.087 18.699,6.444 21.971,15.554c0.965,2.687 1.364,5.549 1.38,8.415c0.119,16.416 5.984,32.631 16.297,45.276c13.344,16.361 34.067,26.445 55.148,26.747c0.573,0.009 1.354,0.01 1.354,0.01c5.185,0.082 10.29,1.892 14.322,5.099c6.706,5.332 10.116,14.448 8.43,22.98c-1.439,7.283 -6.558,13.758 -13.377,16.84c-4.569,2.066 -9.756,2.178 -14.665,1.976c-25.306,-1.043 -50.233,-10.441 -70.012,-26.429c-25.575,-20.673 -42.173,-51.787 -44.268,-85.499c-0.31,-5.001 -0.597,-10.077 0.915,-14.732c3.014,-9.283 12.168,-16.145 22.204,-16.237c0.1,0 0.201,0 0.301,0Zm-0.207,15c-4.266,0.039 -8.21,3.626 -8.432,8.054c-0.116,2.304 0.046,4.655 0.19,6.984c1.635,26.296 13.645,51.659 32.926,69.715c17.253,16.158 39.951,26.23 63.672,27.966c2.58,0.189 5.169,0.288 7.757,0.281c4.58,-0.044 8.674,-4.134 8.432,-8.946c-0.213,-4.248 -3.939,-8.013 -8.432,-8.054c-14.001,-0.047 -28.111,-3.424 -40.572,-9.958c-20.654,-10.829 -36.712,-30.16 -43.395,-52.708c-2.342,-7.904 -3.551,-16.091 -3.589,-24.412c-0.005,-1.191 -0.143,-2.389 -0.57,-3.495c-1.209,-3.129 -4.359,-5.371 -7.817,-5.426c-0.057,-0.001 -0.114,-0.001 -0.17,-0.001Z" style="fill:#fbfaf9;"/></svg>