<?xml version="1.0" encoding="UTF-8" standalone="no"?><!DOCTYPE svg PUBLIC "-//W3C//DTD SVG 1.1//EN" "http://www.w3.org/Graphics/SVG/1.1/DTD/svg11.dtd"><svg width="100%" height="100%" viewBox="0 0 857 840" version="1.1" xmlns="http://www.w3.org/2000/svg" xmlns:xlink="http://www.w3.org/1999/xlink" xml:space="preserve" xmlns:serif="http://www.serif.com/" style="fill-rule:evenodd;clip-rule:evenodd;stroke-linejoin:round;stroke-miterlimit:2;"><rect id="Water-light" serif:id="Water light" x="0.123" y="0.151" width="856.246" height="839.238" style="fill:none;"/><circle cx="428.245" cy="419.77" r="419.619" style="fill:#a0dfdd;"/><path d="M428.38,156.271c10.081,0.064 20.226,4.115 27.306,11.518c4.272,4.467 7.327,10.065 8.981,15.975c0.628,2.266 1.353,4.504 2.055,6.748c9.506,30.402 22.343,59.967 37.808,87.594c14.319,25.58 31.079,49.695 47.917,73.775c17.224,24.639 34.69,49.7 46.025,77.769c12.186,30.178 16.048,63.532 11.207,96.001c-5.023,33.691 -19.514,65.916 -41.374,92.007c-22.676,27.064 -53.256,47.49 -87.065,57.769c-38.168,11.605 -79.992,10.214 -117.196,-3.813c-31.409,-11.842 -59.458,-32.779 -79.868,-58.911c-21.091,-27.004 -34.493,-60.025 -38.269,-94.009c-2.312,-20.801 -1.242,-42.03 3.633,-62.457c4.409,-18.476 11.968,-36.132 21.188,-52.767c14.941,-26.959 33.618,-51.478 51.286,-77.497c13.259,-19.526 25.822,-39.577 36.739,-60.483c13.137,-25.156 23.902,-51.534 32.13,-78.592c0.819,-2.692 1.584,-5.403 2.702,-7.976c4.398,-10.118 13.312,-18.138 24.025,-21.182c3.491,-0.992 7.088,-1.475 10.77,-1.469Zm-0.287,15c-5.69,0.036 -11.358,2.095 -15.562,6.1c-3.364,3.206 -5.403,7.574 -6.734,12.026c-10.082,33.574 -23.984,66.164 -41.221,96.817c-16.243,28.888 -35.632,56.013 -54.251,82.968c-13.868,20.077 -27.443,40.488 -37.008,62.942c-6.94,16.293 -11.498,33.667 -12.981,51.289c-2.75,32.692 4.05,66.073 19.382,94.967c15.85,29.87 40.746,54.877 70.685,70.671c29.623,15.627 63.883,22.113 98.001,18.015c39.197,-4.708 76.211,-23.862 103.026,-52.927c23.066,-25.003 38.402,-57.092 43.413,-90.7c3.621,-24.286 2.122,-49.357 -4.836,-72.676c-8.716,-29.21 -25.64,-55.334 -43.052,-80.515c-18.588,-26.884 -37.656,-53.389 -53.812,-81.798c-16.455,-28.936 -29.948,-59.532 -40.012,-91.162c-0.636,-2 -1.26,-4.004 -1.87,-6.012c-0.19,-0.624 -0.378,-1.248 -0.565,-1.872c-0.992,-3.309 -2.108,-6.522 -4.237,-9.348c-4.146,-5.503 -10.96,-8.706 -18.028,-8.785c-0.113,-0.001 -0.225,-0.001 -0.338,0Zm-95.702,305c7.544,0.068 14.911,3.96 19.18,10.123c2.791,4.03 4.149,8.933 4.176,13.845c0.121,16.685 6.182,33.257 16.992,46.116c12.903,15.348 32.498,25.014 52.351,25.848c0.622,0.026 1.244,0.046 1.866,0.056c0.669,0.012 1.59,0.013 1.59,0.013c10.07,0.16 19.577,7.212 22.347,17.209c2.514,9.072 -0.966,19.572 -8.811,25.288c-4.086,2.977 -9.117,4.508 -14.218,4.501c-19.79,-0.077 -39.385,-4.981 -57.175,-14.797c-25.751,-14.209 -46.036,-38.206 -55.592,-66.239c-4.212,-12.357 -6.343,-25.416 -6.352,-38.47c0,0 0.005,-0.687 0.031,-1.195c0.463,-9.19 6.83,-17.92 15.795,-21.016c2.505,-0.865 5.117,-1.288 7.82,-1.282Zm-0.207,15c-4.358,0.039 -8.39,3.737 -8.438,8.443c-0.054,23.496 8.179,47.106 23.296,65.751c18.913,23.328 47.925,37.934 78.343,38.767c2.094,0.057 4.213,0.201 6.168,-0.626c3.616,-1.529 5.918,-5.79 4.963,-9.815c-0.86,-3.626 -4.323,-6.459 -8.157,-6.52c-19.344,-0.175 -38.879,-6.57 -54.52,-19.015c-19.503,-15.517 -31.895,-39.557 -33.006,-64.553c-0.106,-2.387 0.178,-4.846 -0.657,-7.004c-1.211,-3.133 -4.404,-5.374 -7.817,-5.428c-0.058,0 -0.116,0 -0.175,0Z" style="fill:#fbfaf9;"/></svg>