<?xml version="1.0" encoding="UTF-8" standalone="no"?><!DOCTYPE svg PUBLIC "-//W3C//DTD SVG 1.1//EN" "http://www.w3.org/Graphics/SVG/1.1/DTD/svg11.dtd"><svg width="100%" height="100%" viewBox="0 0 857 840" version="1.1" xmlns="http://www.w3.org/2000/svg" xmlns:xlink="http://www.w3.org/1999/xlink" xml:space="preserve" xmlns:serif="http://www.serif.com/" style="fill-rule:evenodd;clip-rule:evenodd;stroke-linejoin:round;stroke-miterlimit:2;"><rect id="Artboard2" x="0.141" y="0.078" width="856.246" height="839.238" style="fill:none;"/><g><g><path d="M785.133,798.346l-713.739,0l0,-0.216c-12.249,-1.485 -21.753,-11.925 -21.762,-24.57l0,0l0,-710.75l0.181,0c1.366,-11.268 10.312,-20.214 21.581,-21.58l0,-0.181l713.739,0l0,0.181c11.269,1.366 20.215,10.311 21.581,21.58l0.181,0l0,710.75l0,0l0,0.018c0,12.652 -9.508,23.101 -21.762,24.587l0,0.181Zm-282.027,-462.592c12.987,11.824 30.192,19.027 49.053,19.027c37.713,0 68.805,-28.799 72.796,-65.751c-0.172,-2.666 -0.259,-5.356 -0.259,-8.065l49.571,0c0,2.709 -0.087,5.399 -0.258,8.065c3.991,36.952 35.083,65.751 72.795,65.751c5.697,0 11.243,-0.657 16.568,-1.9l0,-268.309l-670.217,0l0,267.476c6.298,1.781 12.937,2.733 19.796,2.733c38.515,0 70.125,-30.038 73.013,-68.122c-0.085,-1.887 -0.129,-3.786 -0.129,-5.694l49.224,0c0,1.908 -0.043,3.807 -0.129,5.695c2.888,38.083 34.498,68.121 73.013,68.121c18.8,0 35.954,-7.156 48.926,-18.911l0,57.89c-14.982,6.619 -31.532,10.293 -48.926,10.293c-39.811,0 -75.199,-19.247 -97.496,-49.006c-22.297,29.759 -57.684,49.006 -97.496,49.006c-6.739,0 -13.352,-0.551 -19.796,-1.612l0,346.334l670.217,0l0,-345.847c-5.418,0.742 -10.949,1.125 -16.568,1.125c-39.708,0 -75.015,-19.147 -97.322,-48.775c-22.307,29.628 -57.614,48.775 -97.323,48.775c-17.443,0 -34.037,-3.695 -49.053,-10.35l0,-57.949Zm-98.231,-54.789l25.176,0c0,28.14 -9.388,54.087 -25.176,74.83l0,-74.83Zm50.225,0l0,74.661c-15.711,-20.715 -25.049,-46.598 -25.049,-74.661l25.049,0Z" style="fill:#fbfaf9;"/><path d="M307.989,201.125c0,-64.328 54.666,-116.553 121.998,-116.553c67.333,0 121.999,52.225 121.999,116.553l0,254.684c30.23,31.095 48.879,73.672 48.879,120.605c0,95.129 -76.617,172.361 -170.987,172.361c-94.371,0 -170.988,-77.232 -170.988,-172.361c0,-47.047 18.74,-89.716 49.099,-120.831l0,-254.458l0,0Zm195.117,276.81c29.672,22.464 48.88,58.228 48.88,98.479c0,67.935 -54.715,123.089 -122.108,123.089c-67.394,0 -122.108,-55.154 -122.108,-123.089c0,-40.35 19.302,-76.191 49.099,-98.645l0,-276.644c0,-38.554 32.763,-69.855 73.118,-69.855c40.356,0 73.119,31.301 73.119,69.855l0,276.81Z" style="fill:#fbfaf9;"/><path d="M404.875,507.019l0,-305.894c0,-13.241 11.252,-23.992 25.112,-23.992c13.86,0 25.113,10.751 25.113,23.992l0,305.975c28.005,10.37 48.006,37.506 48.006,69.314c0,40.741 -32.812,73.817 -73.228,73.817c-40.416,0 -73.229,-33.076 -73.229,-73.817c0,-31.891 20.106,-59.085 48.226,-69.395Zm25.003,44.955c13.438,0 24.349,10.951 24.349,24.44c0,13.489 -10.911,24.44 -24.349,24.44c-13.439,0 -24.349,-10.951 -24.349,-24.44c0,-13.489 10.91,-24.44 24.349,-24.44Z" style="fill:#fbfaf9;"/></g></g></svg>