<?xml version="1.0" encoding="UTF-8" standalone="no"?><!DOCTYPE svg PUBLIC "-//W3C//DTD SVG 1.1//EN" "http://www.w3.org/Graphics/SVG/1.1/DTD/svg11.dtd"><svg width="100%" height="100%" viewBox="0 0 4587 840" version="1.1" xmlns="http://www.w3.org/2000/svg" xmlns:xlink="http://www.w3.org/1999/xlink" xml:space="preserve" xmlns:serif="http://www.serif.com/" style="fill-rule:evenodd;clip-rule:evenodd;stroke-linejoin:round;stroke-miterlimit:2;"><g id="Golden-Ratio-Grid" serif:id="Golden Ratio Grid"></g><rect id="Wordmark" x="0" y="0" width="4586.83" height="839.238" style="fill:none;"/><path d="M39.853,52.58c1.406,-11.589 10.606,-20.789 22.195,-22.194l0,-0.186l734.041,0l0,0.186c11.589,1.405 20.789,10.605 22.195,22.194l0.186,0l0,730.968l0,0l0,0.017c0,13.013 -9.778,23.759 -22.381,25.287l0,0.186l-734.041,0l0,-0.222c-12.597,-1.527 -22.371,-12.263 -22.381,-25.268l0,0l0,-730.968l0.186,0Zm1676.45,539.665c-28.358,27.455 -59.787,41.183 -94.287,41.183c-37.028,0 -67.103,-12.644 -90.223,-37.932c-25.468,-27.816 -38.203,-66.199 -38.203,-115.149c0,-54.911 17.431,-99.616 52.292,-134.116c15.895,-15.714 33.913,-27.681 54.052,-35.899c20.14,-8.219 41.093,-12.328 62.859,-12.328c21.765,0 42.944,3.613 63.535,10.838c7.406,-7.767 16.347,-11.651 26.823,-11.651c8.309,0 14.179,3.342 17.611,10.025c3.974,7.406 5.961,20.23 5.961,38.474l0,317.541c0,22.218 0.993,36.306 2.98,42.267c1.987,5.961 4.426,9.98 7.316,12.057c2.89,2.077 6.231,3.116 10.024,3.116c5.6,0 10.161,-0.632 13.683,-1.897c3.522,-1.264 5.825,-1.851 6.909,-1.761c1.084,0.09 2.077,0.497 2.98,1.219c2.71,1.987 4.064,4.606 4.064,7.858c0,3.251 -0.993,6.773 -2.98,10.566c-1.987,3.793 -5.283,7.632 -9.889,11.515c-4.606,3.884 -9.89,7.18 -15.85,9.89c-12.825,6.141 -25.469,9.212 -37.932,9.212c-12.463,0 -22.533,-4.155 -30.21,-12.464c-7.676,-8.309 -11.515,-21.404 -11.515,-39.286l0,-123.278Zm-1410.93,-188.715l-0.047,0c-40.944,0 -77.338,-19.795 -100.27,-50.401c-22.931,30.606 -59.325,50.401 -100.269,50.401c-6.931,0 -13.732,-0.567 -20.359,-1.658l0,356.185l346.3,0c-97.055,0 -175.851,-79.429 -175.851,-177.263c0,-48.385 19.273,-92.269 50.496,-124.268l0,-52.996Zm125.355,354.527l342.981,0l0,-355.684c-5.573,0.763 -11.26,1.157 -17.039,1.157c-40.838,0 -77.149,-19.692 -100.091,-50.163c-22.941,30.471 -59.252,50.163 -100.09,50.163l-0.179,0l0,53.227c31.09,31.98 50.27,75.768 50.27,124.037c0,97.834 -78.797,177.263 -175.852,177.263Zm75.312,-278.544c30.516,23.103 50.27,59.885 50.27,101.281c0,69.866 -56.271,126.589 -125.582,126.589c-69.31,0 -125.581,-56.723 -125.581,-126.589c0,-41.498 19.852,-78.359 50.496,-101.451l0,-284.514c0,-39.65 33.695,-71.842 75.198,-71.842c41.504,0 75.199,32.192 75.199,71.842l0,284.684Zm-101.025,29.912l0,-314.596c0,-13.618 11.572,-24.674 25.826,-24.674c14.254,0 25.827,11.056 25.827,24.674l0,314.679c28.802,10.665 49.372,38.573 49.372,71.286c0,41.899 -33.746,75.916 -75.312,75.916c-41.565,0 -75.311,-34.017 -75.311,-75.916c0,-32.798 20.678,-60.767 49.598,-71.369Zm2018.45,84.175c-26.371,26.371 -58.252,39.557 -95.642,39.557c-28.9,0 -52.02,-8.309 -69.36,-24.926c-17.521,-16.799 -26.282,-38.564 -26.282,-65.297c0,-33.235 14.812,-58.162 44.435,-74.779c26.732,-15.173 64.393,-22.759 112.982,-22.759l33.867,0c0.181,-6.864 0.271,-13.547 0.271,-20.05l0,-20.321c0,-24.204 -3.522,-41.273 -10.566,-51.207c-7.948,-11.199 -21.495,-16.799 -40.642,-16.799c-43.892,0 -66.47,15.715 -67.735,47.144c-0.18,4.877 -0.09,8.941 0.271,12.192c-3.612,2.89 -9.708,4.335 -18.288,4.335c-8.58,0 -14.812,-0.993 -18.695,-2.98c-3.883,-1.987 -7.27,-4.696 -10.16,-8.128c-6.142,-7.045 -9.212,-16.031 -9.212,-26.959c0,-10.928 3.206,-20.501 9.618,-28.719c6.412,-8.219 15.128,-14.947 26.146,-20.185c21.494,-10.657 46.873,-15.986 76.134,-15.986c29.262,0 51.253,2.845 65.974,8.535c14.721,5.689 26.417,13.231 35.087,22.623c15.353,16.618 23.03,38.925 23.03,66.922l-2.71,130.052c0,23.662 1.129,38.654 3.387,44.976c2.258,6.322 4.967,10.567 8.128,12.734c3.161,2.168 7.045,3.251 11.651,3.251c4.606,0 8.354,-0.722 11.244,-2.167l7.586,-3.522c2.529,-0.904 4.742,0.135 6.638,3.115c1.897,2.981 2.845,5.6 2.845,7.858c0,2.258 -0.948,5.193 -2.845,8.805c-1.896,3.613 -5.419,7.451 -10.567,11.515c-5.147,4.064 -10.973,7.632 -17.475,10.702c-35.945,16.979 -60.42,13.005 -73.425,-11.921c-2.709,-4.877 -4.606,-10.747 -5.69,-17.611Zm955.065,-111.357c0,-21.855 2.257,-41.273 6.773,-58.252c4.516,-16.979 10.612,-32.196 18.289,-45.653c7.676,-13.457 16.708,-25.243 27.094,-35.358c10.386,-10.115 21.539,-18.514 33.461,-25.197c23.481,-13.367 46.601,-20.05 69.36,-20.05c22.759,0 41.003,4.019 54.73,12.057c13.728,8.038 24.927,18.74 33.597,32.106c16.076,25.469 24.114,59.336 24.114,101.603c0,15.715 -6.593,23.752 -19.779,24.114l-189.116,4.064c1.083,39.196 11.199,68.186 30.345,86.972c16.256,15.895 37.299,23.842 63.129,23.842c38.474,0 69.722,-8.038 93.745,-24.113c1.626,0 3.613,1.354 5.961,4.064c4.516,5.419 6.774,10.115 6.774,14.089c0,8.67 -10.838,19.778 -32.513,33.325c-24.927,15.534 -54.008,23.301 -87.243,23.301c-43.35,0 -77.399,-13.818 -102.144,-41.454c-24.385,-27.094 -36.577,-63.58 -36.577,-109.46Zm-1494.78,-95.371c0,-10.295 -0.767,-18.559 -2.303,-24.791c-1.535,-6.231 -4.651,-9.347 -9.347,-9.347c-3.432,0 -6.141,0.361 -8.128,1.084l-6.503,2.709c-1.264,0.361 -2.8,-0.361 -4.606,-2.167c-3.432,-3.794 -5.148,-7.271 -5.148,-10.432c0,-3.161 1.039,-6.502 3.116,-10.024c2.077,-3.523 5.238,-7.542 9.483,-12.057c4.245,-4.516 9.076,-8.49 14.495,-11.922c12.283,-8.128 23.391,-12.192 33.326,-12.192c9.934,0 16.979,1.716 21.133,5.148c4.155,3.432 7.316,7.948 9.483,13.547c3.613,9.031 5.419,22.669 5.419,40.912l0,169.609c0,30.525 9.212,47.595 27.636,51.207c5.599,1.084 12.237,1.626 19.914,1.626c7.677,0 15.895,-0.994 24.656,-2.98c8.76,-1.987 17.114,-4.606 25.062,-7.858c15.353,-6.322 28.9,-14.36 40.641,-24.113l0,-157.959c0,-17.159 -3.071,-27.726 -9.212,-31.7c-2.529,-1.625 -5.871,-2.438 -10.025,-2.438c-4.155,0 -7.451,0.632 -9.89,1.897c-2.438,1.264 -4.425,2.167 -5.96,2.709c-1.536,0.542 -2.845,0.497 -3.929,-0.135c-1.084,-0.633 -2.258,-1.581 -3.522,-2.845c-2.709,-3.071 -4.064,-6.142 -4.064,-9.212c0,-3.071 1.129,-6.367 3.387,-9.89c2.257,-3.522 5.915,-7.586 10.973,-12.192c5.057,-4.606 10.837,-8.806 17.34,-12.599c14.631,-8.489 29.261,-12.734 43.892,-12.734c17.702,0 27.817,12.554 30.345,37.661c0.723,7.044 1.084,14.36 1.084,21.946l0,160.397c0,27.816 1.084,45.156 3.251,52.02c2.168,6.864 4.787,11.334 7.858,13.412c3.07,2.077 6.864,3.115 11.379,3.115c4.516,0 8.219,-0.722 11.109,-2.167l8.128,-3.522c2.348,-0.542 4.425,0.542 6.232,3.251c3.793,5.599 4.335,10.657 1.625,15.173c-2.709,4.515 -6.909,8.85 -12.598,13.005c-5.69,4.154 -12.057,7.767 -19.102,10.837c-31.248,13.728 -53.465,13.457 -66.651,-0.812c-6.864,-7.406 -10.747,-19.147 -11.65,-35.223c-26.553,20.411 -53.737,34.5 -81.553,42.267c-10.116,2.709 -20.727,4.064 -31.836,4.064c-11.108,0 -21.946,-1.535 -32.513,-4.606c-10.566,-3.071 -19.733,-8.038 -27.5,-14.902c-16.618,-14.63 -24.927,-37.209 -24.927,-67.735l0,-159.042Zm889.768,-174.214c52.382,0 87.423,-0.858 105.125,-2.574c17.701,-1.716 28.72,-2.574 33.055,-2.574c4.335,0 8.308,0.632 11.921,1.897c3.612,1.264 6.502,3.07 8.67,5.418c3.432,3.974 5.148,8.941 5.148,14.902c0,9.031 -0.271,16.257 -0.813,21.675c-0.542,5.419 -1.129,11.831 -1.761,19.237c-0.632,7.406 -1.49,15.082 -2.574,23.03c-2.529,18.785 -5.69,31.7 -9.483,38.744c-3.612,5.058 -7.993,7.587 -13.141,7.587c-5.147,0 -9.708,-0.452 -13.682,-1.355l0.271,-17.069c0,-16.076 -0.903,-28.765 -2.709,-38.067c-1.807,-9.303 -5.6,-16.257 -11.38,-20.863c-5.78,-4.606 -14.089,-7.496 -24.926,-8.67c-10.838,-1.174 -25.288,-1.761 -43.351,-1.761l-32.513,0l0,311.852c0,13.006 10.386,22.037 31.158,27.094c5.058,1.084 9.89,2.078 14.496,2.981c4.606,0.903 9.076,1.851 13.411,2.845c4.335,0.993 7.948,2.212 10.838,3.657c5.78,2.89 8.67,7.767 8.67,14.631c0,6.322 -1.445,11.289 -4.335,14.902c-4.154,-1.445 -13.095,-2.168 -26.823,-2.168l-154.978,0c-9.393,0 -16.934,-1.49 -22.623,-4.47c-5.69,-2.981 -8.535,-8.445 -8.535,-16.392c0,-5.6 1.445,-10.206 4.335,-13.818c6.864,1.806 13.366,2.709 19.508,2.709c6.141,0 11.921,-0.632 17.34,-1.896c5.419,-1.265 10.566,-3.522 15.443,-6.774c11.561,-7.405 17.702,-18.695 18.424,-33.867l0,-301.286l-35.222,0c-26.191,0 -43.305,1.219 -51.343,3.658c-8.038,2.438 -14.089,5.554 -18.153,9.347c-4.064,3.793 -7.361,8.941 -9.889,15.444c-4.516,11.199 -8.038,30.526 -10.567,57.981c-3.974,0.903 -7.586,1.355 -10.838,1.355c-7.225,0 -11.831,-1.897 -13.818,-5.69c-1.987,-3.793 -3.341,-7.722 -4.064,-11.786c-0.722,-4.064 -1.264,-8.534 -1.625,-13.411c-0.723,-9.754 -1.084,-20.14 -1.084,-31.159c0,-30.164 2.348,-49.311 7.044,-57.439c4.697,-8.67 14.089,-13.005 28.178,-13.005c2.71,0 6.683,0.271 11.921,0.813c5.239,0.542 12.825,1.174 22.759,1.896c26.914,1.626 59.156,2.439 96.726,2.439l45.789,0Zm252.516,415.351c-17.34,0 -28.448,-3.07 -33.325,-9.212c-1.987,-2.348 -2.981,-5.057 -2.981,-8.128c0,-7.586 1.445,-13.186 4.335,-16.798c4.335,1.445 9.303,2.167 14.902,2.167c5.6,0 9.754,-2.258 12.463,-6.773c2.71,-4.516 3.974,-12.915 3.794,-25.198l0,-335.695c0,-12.463 -1.265,-20.501 -3.794,-24.113c-3.793,-5.78 -10.476,-8.67 -20.049,-8.67l-5.419,0c-1.626,0 -3.477,0.225 -5.554,0.677c-2.078,0.452 -3.839,0.271 -5.284,-0.542c-1.445,-0.813 -2.709,-1.942 -3.793,-3.387c-3.793,-5.599 0.542,-13.185 13.005,-22.759c18.244,-13.908 36.848,-20.862 55.814,-20.862c20.591,0 32.152,11.109 34.68,33.326c0.723,6.683 1.084,13.727 1.084,21.133l0,147.662c27.275,-22.939 56.446,-38.925 87.514,-47.956c11.379,-3.432 22.894,-5.148 34.545,-5.148c11.65,0 22.759,1.535 33.325,4.606c10.567,3.071 19.644,8.038 27.23,14.902c16.618,14.811 24.926,37.39 24.926,67.735l0,181.801c0,14.992 5.058,24.204 15.173,27.636c2.89,1.083 6.322,1.987 10.296,2.709c3.974,0.723 7.541,1.581 10.702,2.574c3.161,0.993 5.644,2.122 7.451,3.387c3.07,2.348 4.606,6.141 4.606,11.379c0,6.503 -1.355,11.47 -4.064,14.902c-3.794,-0.903 -9.573,-1.355 -17.341,-1.355l-86.43,0c-17.34,0 -28.448,-3.07 -33.325,-9.212c-1.987,-2.348 -2.981,-5.057 -2.981,-8.128c0,-7.767 1.355,-13.366 4.065,-16.798c4.515,1.445 9.392,2.167 14.63,2.167c5.239,0 9.257,-1.896 12.057,-5.689c2.8,-3.794 4.38,-10.748 4.742,-20.863l0,-165.273c0,-30.707 -9.122,-47.866 -27.365,-51.479c-5.6,-1.084 -12.599,-1.626 -20.998,-1.626c-8.399,0 -17.611,1.265 -27.636,3.794c-10.025,2.528 -19.463,5.78 -28.313,9.753c-17.521,7.948 -31.791,17.431 -42.809,28.449l0,173.673c0,14.992 5.058,24.204 15.173,27.636c2.89,1.083 6.322,1.987 10.296,2.709c3.973,0.723 7.541,1.581 10.702,2.574c3.161,0.993 5.644,2.122 7.45,3.387c3.071,2.348 4.606,6.141 4.606,11.379c0,6.322 -1.445,11.289 -4.335,14.902c-3.612,-0.903 -9.392,-1.355 -17.34,-1.355l-86.43,0Zm1517.54,-13.547c0,6.322 -1.445,11.289 -4.335,14.902c-3.613,-0.903 -9.393,-1.355 -17.341,-1.355l-86.43,0c-17.34,0 -28.448,-3.07 -33.325,-9.212c-1.987,-2.348 -2.981,-5.057 -2.981,-8.128c0,-7.586 1.445,-13.186 4.335,-16.798c4.336,1.445 9.122,2.167 14.36,2.167c5.239,0 9.257,-1.761 12.057,-5.283c2.8,-3.522 4.38,-10.07 4.742,-19.643l0,-166.899c0,-30.707 -9.122,-47.866 -27.365,-51.479c-5.6,-1.084 -12.238,-1.626 -19.914,-1.626c-7.677,0 -15.986,0.949 -24.927,2.845c-8.941,1.897 -17.476,4.471 -25.604,7.722c-15.714,6.322 -29.442,14.36 -41.183,24.114l0,180.988c0,14.992 5.058,24.204 15.173,27.636c2.89,1.083 6.322,1.987 10.296,2.709c3.973,0.723 7.541,1.581 10.702,2.574c3.161,0.993 5.644,2.122 7.451,3.387c3.07,2.348 4.606,6.141 4.606,11.379c0,6.503 -1.355,11.47 -4.064,14.902c-3.613,-0.903 -9.393,-1.355 -17.341,-1.355l-86.43,0c-17.34,0 -28.448,-3.07 -33.325,-9.212c-1.987,-2.348 -2.981,-5.057 -2.981,-8.128c0,-7.767 1.355,-13.366 4.065,-16.798c4.515,1.445 9.392,2.167 14.63,2.167c5.238,0 9.257,-1.896 12.057,-5.689c2.8,-3.794 4.38,-10.748 4.742,-20.863l0,-165.273c0,-30.707 -9.122,-47.866 -27.365,-51.479c-5.6,-1.084 -12.373,-1.626 -20.321,-1.626c-7.947,0 -16.618,1.084 -26.01,3.252c-9.393,2.167 -18.334,5.057 -26.823,8.67c-16.257,6.683 -30.255,15.172 -41.996,25.468l0,178.279c0,14.811 5.148,24.023 15.444,27.636c2.709,1.083 6.051,1.987 10.024,2.709c3.974,0.723 7.587,1.581 10.838,2.574c3.251,0.993 5.78,2.122 7.586,3.387c3.071,2.348 4.606,6.141 4.606,11.379c0,6.322 -1.445,11.289 -4.335,14.902c-3.612,-0.903 -9.392,-1.355 -17.34,-1.355l-86.43,0c-17.34,0 -28.449,-3.07 -33.325,-9.212c-1.987,-2.348 -2.981,-5.057 -2.981,-8.128c0,-7.586 1.445,-13.186 4.335,-16.798c4.335,1.445 9.257,2.167 14.766,2.167c5.51,0 9.664,-2.258 12.464,-6.773c2.799,-4.516 4.109,-12.915 3.928,-25.198l0,-177.195c0,-16.978 -3.161,-27.545 -9.483,-31.7c-2.528,-1.625 -5.87,-2.438 -10.024,-2.438c-4.155,0 -7.451,0.632 -9.89,1.897c-2.438,1.264 -4.425,2.167 -5.96,2.709c-1.536,0.542 -2.845,0.497 -3.929,-0.135c-1.084,-0.633 -2.167,-1.581 -3.251,-2.845c-2.71,-2.89 -4.064,-5.916 -4.064,-9.077c0,-3.161 1.129,-6.502 3.386,-10.025c2.258,-3.522 5.916,-7.586 10.973,-12.192c5.058,-4.606 10.838,-8.806 17.341,-12.599c14.63,-8.489 29.261,-12.734 43.892,-12.734c16.076,0 25.739,10.206 28.991,30.616c1.083,6.142 1.806,12.464 2.167,18.966c27.094,-21.494 55.453,-36.486 85.075,-44.976c10.838,-3.071 21.314,-4.606 31.429,-4.606c42.99,0 70.174,16.979 81.553,50.937c28.178,-22.398 56.808,-37.841 85.888,-46.331c11.019,-3.071 22.218,-4.606 33.597,-4.606c11.38,0 22.353,1.535 32.919,4.606c10.567,3.071 19.643,8.038 27.23,14.902c16.617,14.811 24.926,37.39 24.926,67.735l0,181.801c0,14.811 5.058,24.023 15.173,27.636c2.89,1.083 6.322,1.987 10.296,2.709c3.973,0.723 7.586,1.581 10.837,2.574c3.252,0.993 5.78,2.122 7.587,3.387c3.07,2.348 4.606,6.141 4.606,11.379l0,0Zm-687.647,14.902c-3.793,-0.903 -9.573,-1.355 -17.34,-1.355l-91.849,0c-17.34,0 -28.448,-3.07 -33.325,-9.212c-1.987,-2.348 -2.981,-5.057 -2.981,-8.128c0,-7.586 1.445,-13.186 4.335,-16.798c4.335,1.445 8.354,2.167 12.057,2.167c3.703,0 6.819,-0.496 9.348,-1.49c2.528,-0.993 4.515,-2.664 5.96,-5.012c2.529,-4.335 3.794,-12.825 3.794,-25.469l0,-177.195c0,-16.978 -3.161,-27.545 -9.483,-31.7c-2.529,-1.625 -5.871,-2.438 -10.025,-2.438c-4.155,0 -7.451,0.632 -9.889,1.897c-2.439,1.264 -4.426,2.167 -5.961,2.709c-1.535,0.542 -2.845,0.497 -3.929,-0.135c-1.084,-0.633 -2.167,-1.581 -3.251,-2.845c-2.709,-3.252 -4.064,-6.367 -4.064,-9.348c0,-2.98 1.129,-6.231 3.387,-9.754c2.257,-3.522 5.915,-7.586 10.973,-12.192c5.057,-4.606 10.837,-8.806 17.34,-12.599c14.631,-8.489 29.261,-12.734 43.892,-12.734c16.618,0 26.462,10.838 29.533,32.513c0.903,6.322 1.445,12.915 1.625,19.779c26.372,-23.301 53.556,-39.287 81.553,-47.957c9.393,-2.89 17.927,-4.335 25.604,-4.335c7.677,0 13.999,1.084 18.966,3.251c4.967,2.168 8.896,5.148 11.786,8.941c5.419,7.406 8.128,16.889 8.128,28.449c0,11.56 -0.542,20.772 -1.626,27.636c-1.083,6.864 -2.438,12.915 -4.064,18.153c-3.251,10.657 -6.322,17.431 -9.212,20.321c-5.057,5.238 -11.831,7.857 -20.32,7.857c-8.67,0 -13.005,-2.529 -13.005,-7.586c0,-19.328 -0.813,-31.7 -2.439,-37.119c-3.07,-9.935 -8.85,-14.902 -17.34,-14.902c-8.489,0 -16.166,0.948 -23.03,2.845c-6.864,1.896 -13.547,4.47 -20.049,7.722c-13.186,6.502 -24.746,14.901 -34.681,25.197l0,180.175c0.542,14.27 6.774,22.94 18.695,26.011c3.432,0.903 7.315,1.716 11.651,2.438c4.335,0.723 8.083,1.581 11.244,2.574c3.161,0.993 5.644,2.122 7.45,3.387c3.071,2.348 4.606,6.141 4.606,11.379c0,6.503 -1.354,11.47 -4.064,14.902Zm-2808.84,-1.355c-24.024,0 -36.035,-6.593 -36.035,-19.778c0,-6.142 1.354,-11.109 4.064,-14.902c6.683,1.806 12.328,2.709 16.934,2.709c4.606,0 8.489,-0.722 11.65,-2.167c3.161,-1.445 6.187,-3.884 9.077,-7.316c4.877,-5.96 10.566,-17.882 17.069,-35.764l133.844,-324.044c3.793,-8.67 14.541,-14.631 32.242,-17.882c4.877,-0.903 10.025,-1.355 15.444,-1.355c11.018,0 17.792,2.98 20.32,8.941l27.094,67.735c52.201,123.188 82.366,195.077 90.494,215.669l24.385,63.941c4.877,13.909 8.941,22.488 12.192,25.74c3.252,3.251 6.774,5.509 10.567,6.773c3.793,1.265 7.722,2.303 11.786,3.116c4.064,0.813 7.631,1.851 10.702,3.116c6.864,3.071 10.296,7.767 10.296,14.089c0,4.877 -1.355,9.031 -4.064,12.463c-3.432,-0.903 -6.502,-1.355 -9.212,-1.355l-129.239,0c-9.212,0 -16.392,-1.129 -21.54,-3.386c-5.147,-2.258 -7.721,-5.735 -7.721,-10.432c0,-8.128 1.716,-14.089 5.147,-17.882c7.587,1.265 13.277,1.897 17.07,1.897c3.793,0 7.541,-0.407 11.244,-1.219c3.703,-0.813 6.999,-2.123 9.889,-3.929c6.503,-3.974 9.754,-10.205 9.754,-18.695c0,-7.044 -2.168,-14.902 -6.503,-23.572l-25.468,-63.129l-171.505,0l-30.346,76.947c-2.89,7.045 -4.335,12.147 -4.335,15.308c0,3.161 0.497,5.51 1.491,7.045c0.993,1.535 2.528,2.845 4.606,3.929c2.077,1.083 4.651,1.986 7.721,2.709l11.109,2.98c11.921,1.987 19.598,3.793 23.03,5.419c7.044,3.432 10.567,8.49 10.567,15.173c0,4.877 -1.355,9.031 -4.065,12.463c-3.431,-0.903 -6.592,-1.355 -9.482,-1.355l-110.273,0Zm-616.357,-72.35c13.821,0 25.042,11.262 25.042,25.135c0,13.872 -11.221,25.135 -25.042,25.135c-13.82,0 -25.041,-11.263 -25.041,-25.135c0,-13.873 11.221,-25.135 25.041,-25.135Zm1991.92,2.448c0,-26.011 0.181,-51.84 0.542,-77.489c-37.57,1.445 -63.084,3.838 -76.54,7.18c-13.457,3.341 -23.166,6.547 -29.126,9.618c-5.961,3.071 -10.657,6.683 -14.089,10.838c-5.6,6.864 -8.399,17.204 -8.399,31.022c0,13.818 4.876,24.837 14.63,33.055c9.754,8.219 23.753,12.328 41.996,12.328c25.83,0 49.492,-8.851 70.986,-26.552Zm-706.341,-192.368c-17.882,-16.256 -39.376,-24.385 -64.484,-24.385c-28.177,0 -51.027,10.387 -68.547,31.159c-18.786,22.217 -28.178,52.472 -28.178,90.765c0,40.46 8.218,70.986 24.655,91.577c14.812,18.424 35.674,27.636 62.588,27.636c26.913,0 51.569,-11.199 73.966,-33.596l0,-183.156Zm-413.455,83.179l-70.986,-175.57l-69.632,175.57l140.618,0Zm2135.82,-12.193c52.021,-2.528 99.616,-5.87 142.786,-10.024c1.987,-57.44 -17.882,-86.159 -59.607,-86.159c-23.301,0 -42.357,9.031 -57.168,27.094c-13.547,16.617 -22.218,39.647 -26.011,69.089Zm-2882.36,-83.869l0.179,0.001c38.785,0 70.761,-29.619 74.866,-67.622c-0.177,-2.742 -0.266,-5.508 -0.266,-8.295l50.981,0c0,2.787 -0.09,5.553 -0.266,8.295c4.104,38.003 36.081,67.622 74.866,67.622c5.859,0 11.563,-0.676 17.039,-1.955l0,-275.941l-689.281,0l0,275.085c6.477,1.831 13.305,2.811 20.359,2.811c39.611,0 72.12,-30.893 75.09,-70.06c-0.088,-1.941 -0.132,-3.894 -0.132,-5.857l50.623,0c0,1.963 -0.044,3.916 -0.132,5.857c2.97,39.167 35.479,70.06 75.09,70.06l0.047,0l0,-158.028c0,-66.157 56.22,-119.868 125.468,-119.868c69.248,0 125.469,53.711 125.469,119.868l0,158.027Z" style="fill:url(#_Radial1);"/><defs><radialGradient id="_Radial1" cx="0" cy="0" r="1" gradientUnits="userSpaceOnUse" gradientTransform="matrix(5380.3,-989.641,5364.77,992.506,-784.965,989.641)"><stop offset="0" style="stop-color:#328aa2;stop-opacity:1"/><stop offset="0.29" style="stop-color:#389cae;stop-opacity:1"/><stop offset="0.59" style="stop-color:#49ced2;stop-opacity:1"/><stop offset="0.79" style="stop-color:#60d2d5;stop-opacity:1"/><stop offset="1" style="stop-color:#a0dfdd;stop-opacity:1"/></radialGradient></defs></svg>